<?xml version="1.0" encoding="UTF-8"?>
<svg id="Layer_1" data-name="Layer 1" xmlns="http://www.w3.org/2000/svg" xmlns:xlink="http://www.w3.org/1999/xlink" viewBox="0 0 469.63 119.42">
  <defs>
    <style>
      .cls-1 {
        fill: url(#linear-gradient-2);
      }

      .cls-2 {
        fill: #fff;
      }

      .cls-3 {
        fill: url(#linear-gradient);
      }
    </style>
    <linearGradient id="linear-gradient" x1="0" y1="72.3" x2="149.01" y2="72.3" gradientTransform="translate(0 341.39) scale(1 -3.2)" gradientUnits="userSpaceOnUse">
      <stop offset="0" stop-color="#fff" stop-opacity="0"/>
      <stop offset=".17" stop-color="#fff" stop-opacity=".15"/>
      <stop offset=".56" stop-color="#fff" stop-opacity=".53"/>
      <stop offset="1" stop-color="#fff"/>
    </linearGradient>
    <linearGradient id="linear-gradient-2" x1="281.11" y1="89.5" x2="431.6" y2="89.5" gradientTransform="translate(750.74 -176.97) rotate(-180) scale(1 -3.2)" xlink:href="#linear-gradient"/>
  </defs>
  <g>
    <path class="cls-2" d="M8.35,65.28V13.73c0-2.88-.4-5.2-1.2-6.96-.8-1.76-2.64-2.64-5.52-2.64H0V1.92H9.41c2.24,0,3.98,.32,5.23,.96,1.25,.64,2.13,1.81,2.64,3.5,.51,1.7,.77,4.14,.77,7.34V30.62h28.03V1.92h9.6V53.47c0,2.88,.4,5.2,1.2,6.96,.8,1.76,2.64,2.64,5.52,2.64h1.73v2.21h-9.41c-2.24,0-3.98-.3-5.23-.91-1.25-.61-2.13-1.78-2.64-3.5-.51-1.73-.77-4.19-.77-7.39v-18.91H18.05v30.72H8.35Z"/>
    <path class="cls-2" d="M101.86,67.2c-6.14,0-11.49-1.49-16.03-4.46-4.54-2.98-8.05-7.01-10.51-12.1-2.46-5.09-3.7-10.77-3.7-17.04s1.23-11.95,3.7-17.04c2.46-5.09,5.97-9.12,10.51-12.1,4.54-2.98,9.89-4.46,16.03-4.46s11.47,1.49,15.98,4.46c4.51,2.98,8.02,7.01,10.51,12.1,2.5,5.09,3.74,10.77,3.74,17.04s-1.25,11.95-3.74,17.04c-2.5,5.09-6,9.12-10.51,12.1-4.51,2.98-9.84,4.46-15.98,4.46Zm0-3.94c4.16,0,7.7-1.2,10.61-3.6,2.91-2.4,5.15-5.81,6.72-10.22,1.57-4.42,2.35-9.7,2.35-15.84s-.78-11.42-2.35-15.84c-1.57-4.42-3.81-7.82-6.72-10.22-2.91-2.4-6.45-3.6-10.61-3.6s-7.62,1.2-10.56,3.6c-2.94,2.4-5.2,5.81-6.77,10.22-1.57,4.42-2.35,9.7-2.35,15.84s.78,11.42,2.35,15.84c1.57,4.42,3.82,7.82,6.77,10.22,2.94,2.4,6.46,3.6,10.56,3.6Z"/>
    <path class="cls-2" d="M147.84,65.28V13.73c0-2.88-.4-5.2-1.2-6.96-.8-1.76-2.64-2.64-5.52-2.64h-1.63V1.92h9.41c2.24,0,3.98,.32,5.23,.96,1.25,.64,2.13,1.81,2.64,3.5,.51,1.7,.77,4.14,.77,7.34V61.34h33.79v3.94h-43.49Z"/>
    <path class="cls-2" d="M209.76,65.28c-2.24,0-3.98-.3-5.23-.91-1.25-.61-2.13-1.78-2.64-3.5-.51-1.73-.77-4.19-.77-7.39V1.92h9.7V53.47c0,2.88,.4,5.2,1.2,6.96,.8,1.76,2.64,2.64,5.52,2.64h1.63v2.21h-9.41Z"/>
    <path class="cls-2" d="M232.99,65.28V13.73c0-2.88-.4-5.2-1.2-6.96-.8-1.76-2.64-2.64-5.52-2.64h-1.63V1.92h25.34c12.8,0,22.38,2.8,28.75,8.4,6.37,5.6,9.55,13.23,9.55,22.9,0,6.27-1.36,11.81-4.08,16.61s-6.72,8.58-12,11.33c-5.28,2.75-11.86,4.13-19.73,4.13h-19.49Zm19.2-3.46c4.67,0,8.86-1.15,12.58-3.46,3.71-2.3,6.64-5.57,8.79-9.79,2.14-4.22,3.21-9.22,3.21-14.98s-1.05-10.64-3.17-14.83c-2.11-4.19-5.03-7.47-8.74-9.84-3.71-2.37-8-3.55-12.86-3.55-1.41,0-2.85,.11-4.32,.34-1.47,.23-3.07,.56-4.8,1.01V60.67c1.28,.26,2.45,.47,3.5,.62,1.05,.16,2.06,.29,3.02,.38,.96,.1,1.89,.14,2.78,.14Z"/>
    <path class="cls-2" d="M352.22,65.76c-1.6,0-3.47-.27-5.62-.82-2.15-.54-4.22-1.71-6.24-3.5-2.02-1.79-3.73-4.51-5.14-8.16l-2.4-6.05h-26.5l-7.78,18.05h-4.51L321.31,1.92h3.26l21.22,51.36c1.47,3.39,2.94,5.82,4.42,7.3,1.47,1.47,3.49,2.34,6.05,2.59v2.11c-.51,.13-1.14,.24-1.87,.34-.74,.1-1.46,.14-2.16,.14Zm-44.35-22.46h23.04l-11.23-27.17-11.81,27.17Z"/>
    <path class="cls-2" d="M358.46,65.28v-2.21L397.25,5.86h-22.46c-3.78,0-6.69,.88-8.74,2.64-2.05,1.76-3.07,4.62-3.07,8.59h-2.11v-7.49c0-1.28,.22-2.51,.67-3.7,.45-1.18,1.26-2.14,2.45-2.88,1.18-.74,2.86-1.1,5.04-1.1h42.24l-40.03,59.42h38.78v3.94h-51.55Z"/>
    <path class="cls-2" d="M425.18,65.28V13.73c0-2.88-.4-5.2-1.2-6.96-.8-1.76-2.64-2.64-5.52-2.64h-1.63V1.92h41.28c2.24,0,3.94,.37,5.09,1.1,1.15,.74,1.95,1.7,2.4,2.88,.45,1.18,.67,2.42,.67,3.7v7.49h-2.21c0-3.9-1.04-6.75-3.12-8.54-2.08-1.79-5.04-2.69-8.88-2.69h-17.18V30.62h25.63v3.94h-25.63v26.79h16.7c4.09,0,7.41-.8,9.94-2.4,2.53-1.6,4.53-4.35,6-8.26l2.11,.58-3.17,8.74c-.58,1.6-1.44,2.88-2.59,3.84-1.15,.96-2.78,1.44-4.9,1.44h-33.79Z"/>
  </g>
  <g>
    <path class="cls-2" d="M167.55,109.63h-6.61v9.48h-1.94v-22.75h7.39c2.43,0,4.32,.59,5.69,1.76,1.36,1.18,2.05,2.82,2.05,4.93,0,1.46-.43,2.74-1.28,3.85-.85,1.11-2,1.88-3.44,2.31l5.69,9.69v.2h-2.05l-5.5-9.48Zm-6.61-1.62h5.89c1.61,0,2.91-.46,3.89-1.38,.98-.92,1.47-2.11,1.47-3.57,0-1.61-.51-2.85-1.53-3.74-1.02-.89-2.45-1.33-4.3-1.33h-5.42v10.02Z"/>
    <path class="cls-2" d="M194.96,108.21h-10.64v9.28h12.23v1.62h-14.16v-22.75h14.08v1.62h-12.16v8.59h10.64v1.62Z"/>
    <path class="cls-2" d="M216.52,113.52c0-1.26-.44-2.26-1.33-2.99-.89-.73-2.51-1.43-4.86-2.09-2.35-.66-4.07-1.38-5.16-2.16-1.54-1.1-2.31-2.55-2.31-4.34s.72-3.15,2.15-4.24c1.43-1.09,3.26-1.63,5.49-1.63,1.51,0,2.86,.29,4.05,.88,1.19,.58,2.12,1.4,2.77,2.44,.66,1.04,.98,2.2,.98,3.48h-1.94c0-1.56-.53-2.81-1.59-3.75-1.06-.95-2.49-1.42-4.28-1.42s-3.12,.39-4.16,1.17-1.55,1.79-1.55,3.04c0,1.16,.46,2.1,1.39,2.83,.93,.73,2.41,1.37,4.45,1.93,2.04,.56,3.59,1.14,4.64,1.74,1.05,.6,1.84,1.32,2.38,2.15,.53,.83,.8,1.82,.8,2.95,0,1.79-.72,3.23-2.15,4.31-1.43,1.08-3.32,1.62-5.66,1.62-1.6,0-3.08-.29-4.41-.86-1.34-.57-2.35-1.38-3.05-2.41-.69-1.03-1.04-2.21-1.04-3.55h1.92c0,1.6,.6,2.87,1.8,3.8,1.2,.93,2.79,1.39,4.78,1.39,1.77,0,3.19-.39,4.27-1.17,1.07-.78,1.61-1.82,1.61-3.11Z"/>
    <path class="cls-2" d="M242.45,108.97c0,2.09-.36,3.93-1.09,5.52-.72,1.58-1.76,2.8-3.1,3.66-1.34,.85-2.9,1.28-4.66,1.28-2.66,0-4.8-.95-6.44-2.85-1.64-1.9-2.45-4.47-2.45-7.7v-2.34c0-2.07,.37-3.91,1.1-5.51,.73-1.6,1.77-2.83,3.12-3.69s2.89-1.29,4.64-1.29,3.29,.42,4.63,1.27c1.34,.84,2.37,2.04,3.1,3.58,.73,1.54,1.11,3.33,1.14,5.36v2.72Zm-1.92-2.47c0-2.74-.62-4.88-1.86-6.44-1.24-1.55-2.94-2.33-5.09-2.33s-3.8,.78-5.05,2.34c-1.26,1.56-1.88,3.73-1.88,6.52v2.38c0,2.7,.62,4.84,1.88,6.41s2.95,2.37,5.09,2.37,3.88-.78,5.09-2.34c1.22-1.56,1.83-3.73,1.83-6.51v-2.41Z"/>
    <path class="cls-2" d="M258.83,109.63h-6.61v9.48h-1.94v-22.75h7.39c2.43,0,4.32,.59,5.69,1.76,1.36,1.18,2.05,2.82,2.05,4.93,0,1.46-.43,2.74-1.28,3.85-.85,1.11-2,1.88-3.44,2.31l5.69,9.69v.2h-2.05l-5.5-9.48Zm-6.61-1.62h5.89c1.61,0,2.91-.46,3.89-1.38,.98-.92,1.47-2.11,1.47-3.57,0-1.61-.51-2.85-1.53-3.74-1.02-.89-2.45-1.33-4.3-1.33h-5.42v10.02Z"/>
    <path class="cls-2" d="M287.88,97.99h-7.8v21.12h-1.92v-21.12h-7.78v-1.62h17.5v1.62Z"/>
    <path class="cls-2" d="M307.21,113.52c0-1.26-.44-2.26-1.33-2.99-.89-.73-2.51-1.43-4.86-2.09-2.35-.66-4.07-1.38-5.16-2.16-1.54-1.1-2.31-2.55-2.31-4.34s.72-3.15,2.15-4.24c1.43-1.09,3.26-1.63,5.49-1.63,1.51,0,2.86,.29,4.05,.88,1.19,.58,2.12,1.4,2.77,2.44,.66,1.04,.98,2.2,.98,3.48h-1.94c0-1.56-.53-2.81-1.59-3.75-1.06-.95-2.49-1.42-4.28-1.42s-3.12,.39-4.16,1.17-1.55,1.79-1.55,3.04c0,1.16,.46,2.1,1.39,2.83,.93,.73,2.41,1.37,4.45,1.93,2.04,.56,3.59,1.14,4.64,1.74,1.05,.6,1.84,1.32,2.38,2.15,.53,.83,.8,1.82,.8,2.95,0,1.79-.72,3.23-2.15,4.31-1.43,1.08-3.32,1.62-5.66,1.62-1.6,0-3.08-.29-4.41-.86-1.34-.57-2.35-1.38-3.05-2.41-.69-1.03-1.04-2.21-1.04-3.55h1.92c0,1.6,.6,2.87,1.8,3.8,1.2,.93,2.79,1.39,4.78,1.39,1.77,0,3.19-.39,4.27-1.17,1.07-.78,1.61-1.82,1.61-3.11Z"/>
  </g>
  <path class="cls-3" d="M149.01,109.76c0-.27-.23-.5-.5-.5H.5c-.27,0-.5,.23-.5,.5H0c0,.27,.23,.5,.5,.5H148.51c.27,0,.5-.23,.5-.5h0Z"/>
  <path class="cls-1" d="M319.14,109.76c0,.27,.23,.5,.5,.5h149.48c.27,0,.5-.23,.5-.5h0c0-.27-.23-.5-.5-.5h-149.48c-.27,0-.5,.23-.5,.5h0Z"/>
</svg>