<?xml version="1.0" encoding="UTF-8"?>
<svg id="Layer_1" data-name="Layer 1" xmlns="http://www.w3.org/2000/svg" xmlns:xlink="http://www.w3.org/1999/xlink" viewBox="0 0 469.63 79.77">
  <defs>
    <style>
      .cls-1 {
        fill: url(#linear-gradient);
      }
    </style>
    <linearGradient id="linear-gradient" x1="0" y1="52.36" x2="469.63" y2="52.36" gradientTransform="translate(0 149190.31) scale(1 -2847.74)" gradientUnits="userSpaceOnUse">
      <stop offset="0" stop-color="#000" stop-opacity="0"/>
      <stop offset=".52" stop-color="#000"/>
      <stop offset="1" stop-color="#000" stop-opacity="0"/>
    </linearGradient>
  </defs>
  <g>
    <path d="M8.35,65.28V13.73c0-2.88-.4-5.2-1.2-6.96-.8-1.76-2.64-2.64-5.52-2.64H0V1.92H9.41c2.24,0,3.98,.32,5.23,.96,1.25,.64,2.13,1.81,2.64,3.5,.51,1.7,.77,4.14,.77,7.34V30.62h28.03V1.92h9.6V53.47c0,2.88,.4,5.2,1.2,6.96,.8,1.76,2.64,2.64,5.52,2.64h1.73v2.21h-9.41c-2.24,0-3.98-.3-5.23-.91-1.25-.61-2.13-1.78-2.64-3.5-.51-1.73-.77-4.19-.77-7.39v-18.91H18.05v30.72H8.35Z"/>
    <path d="M101.86,67.2c-6.14,0-11.49-1.49-16.03-4.46-4.54-2.98-8.05-7.01-10.51-12.1-2.46-5.09-3.7-10.77-3.7-17.04s1.23-11.95,3.7-17.04c2.46-5.09,5.97-9.12,10.51-12.1,4.54-2.98,9.89-4.46,16.03-4.46s11.47,1.49,15.98,4.46c4.51,2.98,8.02,7.01,10.51,12.1,2.5,5.09,3.74,10.77,3.74,17.04s-1.25,11.95-3.74,17.04c-2.5,5.09-6,9.12-10.51,12.1-4.51,2.98-9.84,4.46-15.98,4.46Zm0-3.94c4.16,0,7.7-1.2,10.61-3.6,2.91-2.4,5.15-5.81,6.72-10.22,1.57-4.42,2.35-9.7,2.35-15.84s-.78-11.42-2.35-15.84c-1.57-4.42-3.81-7.82-6.72-10.22-2.91-2.4-6.45-3.6-10.61-3.6s-7.62,1.2-10.56,3.6c-2.94,2.4-5.2,5.81-6.77,10.22-1.57,4.42-2.35,9.7-2.35,15.84s.78,11.42,2.35,15.84c1.57,4.42,3.82,7.82,6.77,10.22,2.94,2.4,6.46,3.6,10.56,3.6Z"/>
    <path d="M147.84,65.28V13.73c0-2.88-.4-5.2-1.2-6.96-.8-1.76-2.64-2.64-5.52-2.64h-1.63V1.92h9.41c2.24,0,3.98,.32,5.23,.96,1.25,.64,2.13,1.81,2.64,3.5,.51,1.7,.77,4.14,.77,7.34V61.34h33.79v3.94h-43.49Z"/>
    <path d="M209.76,65.28c-2.24,0-3.98-.3-5.23-.91-1.25-.61-2.13-1.78-2.64-3.5-.51-1.73-.77-4.19-.77-7.39V1.92h9.7V53.47c0,2.88,.4,5.2,1.2,6.96,.8,1.76,2.64,2.64,5.52,2.64h1.63v2.21h-9.41Z"/>
    <path d="M232.99,65.28V13.73c0-2.88-.4-5.2-1.2-6.96-.8-1.76-2.64-2.64-5.52-2.64h-1.63V1.92h25.34c12.8,0,22.38,2.8,28.75,8.4,6.37,5.6,9.55,13.23,9.55,22.9,0,6.27-1.36,11.81-4.08,16.61s-6.72,8.58-12,11.33c-5.28,2.75-11.86,4.13-19.73,4.13h-19.49Zm19.2-3.46c4.67,0,8.86-1.15,12.58-3.46,3.71-2.3,6.64-5.57,8.79-9.79,2.14-4.22,3.21-9.22,3.21-14.98s-1.05-10.64-3.17-14.83c-2.11-4.19-5.03-7.47-8.74-9.84-3.71-2.37-8-3.55-12.86-3.55-1.41,0-2.85,.11-4.32,.34-1.47,.23-3.07,.56-4.8,1.01V60.67c1.28,.26,2.45,.47,3.5,.62,1.05,.16,2.06,.29,3.02,.38,.96,.1,1.89,.14,2.78,.14Z"/>
    <path d="M352.22,65.76c-1.6,0-3.47-.27-5.62-.82-2.15-.54-4.22-1.71-6.24-3.5-2.02-1.79-3.73-4.51-5.14-8.16l-2.4-6.05h-26.5l-7.78,18.05h-4.51L321.31,1.92h3.26l21.22,51.36c1.47,3.39,2.94,5.82,4.42,7.3,1.47,1.47,3.49,2.34,6.05,2.59v2.11c-.51,.13-1.14,.24-1.87,.34-.74,.1-1.46,.14-2.16,.14Zm-44.35-22.46h23.04l-11.23-27.17-11.81,27.17Z"/>
    <path d="M358.46,65.28v-2.21L397.25,5.86h-22.46c-3.78,0-6.69,.88-8.74,2.64-2.05,1.76-3.07,4.62-3.07,8.59h-2.11v-7.49c0-1.28,.22-2.51,.67-3.7,.45-1.18,1.26-2.14,2.45-2.88,1.18-.74,2.86-1.1,5.04-1.1h42.24l-40.03,59.42h38.78v3.94h-51.55Z"/>
    <path d="M425.18,65.28V13.73c0-2.88-.4-5.2-1.2-6.96-.8-1.76-2.64-2.64-5.52-2.64h-1.63V1.92h41.28c2.24,0,3.94,.37,5.09,1.1,1.15,.74,1.95,1.7,2.4,2.88,.45,1.18,.67,2.42,.67,3.7v7.49h-2.21c0-3.9-1.04-6.75-3.12-8.54-2.08-1.79-5.04-2.69-8.88-2.69h-17.18V30.62h25.63v3.94h-25.63v26.79h16.7c4.09,0,7.41-.8,9.94-2.4,2.53-1.6,4.53-4.35,6-8.26l2.11,.58-3.17,8.74c-.58,1.6-1.44,2.88-2.59,3.84-1.15,.96-2.78,1.44-4.9,1.44h-33.79Z"/>
  </g>
  <path class="cls-1" d="M469.63,79.27c0-.27-.23-.5-.5-.5H.5c-.27,0-.5,.23-.5,.5H0c0,.27,.23,.5,.5,.5H469.13c.27,0,.5-.23,.5-.5h0Z"/>
</svg>